<?xml version="1.0" encoding="UTF-8"?>
<svg width="5609px" height="3791px" viewBox="0 0 5609 3791" version="1.1" xmlns="http://www.w3.org/2000/svg" xmlns:xlink="http://www.w3.org/1999/xlink">
    <!-- Generator: Sketch 52.5 (67469) - http://www.bohemiancoding.com/sketch -->
    <title>B2_main</title>
    <desc>Created with Sketch.</desc>
    <g id="B2_main" stroke="none" stroke-width="1" fill="none" fill-rule="evenodd">
        <rect id="bg" fill="#C8D1DE" fill-rule="nonzero" x="0" y="0" width="5609" height="3791"></rect>
        <path d="M1046,821 L160,2825 L160,3571 L588,3571 L1199,3631 L3795,3631 L3795,3349 L4890,3349 L4890,3593 L5405,3593 L5449,2430 L5449,400 L4138,160 L2900,160 C2810.85174,699.677613 2741.85174,981.010946 2693,1004 C2636.33333,1030.66667 2217.33333,969.666667 1436,821 L1046,821 Z" id="外框" stroke="#2E3F6C" stroke-width="30" fill="#C8D1DE"></path>
        <g id="road" transform="translate(545.000000, 327.000000)" fill="#FFFFFF">
            <rect id="Rectangle-2" x="1504" y="1232" width="150" height="1943"></rect>
            <rect id="Rectangle-2-Copy-2" x="1128" y="2495" width="150" height="680"></rect>
            <rect id="Rectangle-2-Copy-9" x="2256" y="2305" width="150" height="870"></rect>
            <rect id="Rectangle-2-Copy-33" x="1128" y="1232" width="150" height="696"></rect>
            <rect id="Rectangle-2-Copy-11" x="2632" y="738" width="150" height="2437"></rect>
            <rect id="Rectangle-2-Copy-12" x="3008" y="329" width="150" height="2315"></rect>
            <rect id="Rectangle-2-Copy-13" x="3384" y="329" width="150" height="2676"></rect>
            <rect id="Rectangle-2-Copy-17" x="3760" y="0" width="150" height="3005"></rect>
            <rect id="Rectangle-2-Copy-20" x="4380" y="329" width="150" height="1053"></rect>
            <rect id="Rectangle-2-Copy-8" x="0" y="2133" width="526" height="153"></rect>
            <rect id="Rectangle-2-Copy-32" x="1128" y="2495" width="526" height="153"></rect>
            <rect id="Rectangle-2-Copy-34" x="0" y="2495" width="526" height="153"></rect>
            <rect id="Rectangle-2-Copy-14" x="3008" y="2852" width="902" height="153"></rect>
            <rect id="Rectangle-2-Copy-15" x="3008" y="2852" width="194" height="323"></rect>
            <rect id="Rectangle-2-Copy-4" x="0" y="2518" width="150" height="657"></rect>
            <rect id="Rectangle-2-Copy-5" x="376" y="1039" width="150" height="2136"></rect>
            <rect id="Rectangle-2-Copy-6" x="752" y="1039" width="150" height="2136"></rect>
            <rect id="Rectangle-2-Copy" x="1880" y="1248" width="150" height="1927"></rect>
            <rect id="Rectangle-2-Copy-3" x="4" y="3013" width="3198" height="162"></rect>
            <rect id="Rectangle-2-Copy-7" x="376" y="1778" width="3482" height="150"></rect>
            <rect id="Rectangle-2-Copy-16" x="376" y="1232" width="4169" height="150"></rect>
            <rect id="Rectangle-2-Copy-19" x="2632" y="692" width="526" height="150"></rect>
            <rect id="Rectangle-2-Copy-24" x="2353" y="0" width="1482" height="150"></rect>
            <rect id="Rectangle-2-Copy-18" x="2307" y="329" width="2223" height="150"></rect>
            <rect id="Rectangle-2-Copy-10" x="2256" y="1248" width="150" height="680"></rect>
        </g>
        <text id="B2" font-family="GenJyuuGothicL-Monospace-Heavy, Gen Jyuu Gothic L Monospace" font-size="288" font-weight="600" fill="#4A4A4A">
            <tspan x="291" y="661">B2</tspan>
        </text>
        <g id="p" transform="translate(436.000000, 185.000000)" fill="#FFFFFF" stroke="#2E3F6C" stroke-width="2">
            <rect id="Rectangle" x="1876" y="2831" width="110" height="46"></rect>
            <rect id="Rectangle-Copy-2" x="1876" y="2877" width="110" height="46"></rect>
            <rect id="Rectangle-Copy-4" x="1876" y="2923" width="110" height="46"></rect>
            <rect id="Rectangle-Copy" x="1766" y="2831" width="110" height="46"></rect>
            <rect id="Rectangle-Copy-3" x="1766" y="2877" width="110" height="46"></rect>
            <rect id="Rectangle-Copy-5" x="1766" y="2923" width="110" height="46"></rect>
            <rect id="Rectangle" x="2252" y="2831" width="110" height="46"></rect>
            <rect id="Rectangle-Copy-2" x="2252" y="2877" width="110" height="46"></rect>
            <rect id="Rectangle-Copy-4" x="2252" y="2923" width="110" height="46"></rect>
            <rect id="Rectangle-Copy" x="2142" y="2831" width="110" height="46"></rect>
            <rect id="Rectangle-Copy-3" x="2142" y="2877" width="110" height="46"></rect>
            <rect id="Rectangle-Copy-5" x="2142" y="2923" width="110" height="46"></rect>
            <rect id="Rectangle" x="2628" y="2831" width="110" height="46"></rect>
            <rect id="Rectangle-Copy-2" x="2628" y="2877" width="110" height="46"></rect>
            <rect id="Rectangle-Copy-4" x="2628" y="2923" width="110" height="46"></rect>
            <rect id="Rectangle-Copy" x="2518" y="2831" width="110" height="46"></rect>
            <rect id="Rectangle-Copy-3" x="2518" y="2877" width="110" height="46"></rect>
            <rect id="Rectangle-Copy-5" x="2518" y="2923" width="110" height="46"></rect>
            <rect id="Rectangle" x="2628" y="2288" width="110" height="46"></rect>
            <rect id="Rectangle-Copy-2" x="2628" y="2334" width="110" height="46"></rect>
            <rect id="Rectangle-Copy-4" x="2628" y="2380" width="110" height="46"></rect>
            <rect id="Rectangle-Copy" x="2894" y="2831" width="110" height="46"></rect>
            <rect id="Rectangle-Copy-3" x="2894" y="2877" width="110" height="46"></rect>
            <rect id="Rectangle-Copy-5" x="2894" y="2923" width="110" height="46"></rect>
            <rect id="Rectangle-Copy" x="3380" y="2831" width="110" height="46"></rect>
            <rect id="Rectangle-Copy-3" x="3380" y="2877" width="110" height="46"></rect>
            <rect id="Rectangle-Copy-5" x="3380" y="2923" width="110" height="46"></rect>
            <rect id="Rectangle" x="1876" y="2471" width="110" height="46"></rect>
            <rect id="Rectangle-Copy-2" x="1876" y="2517" width="110" height="46"></rect>
            <rect id="Rectangle-Copy-4" x="1876" y="2563" width="110" height="46"></rect>
            <rect id="Rectangle-Copy" x="1766" y="2471" width="110" height="46"></rect>
            <rect id="Rectangle-Copy-3" x="1766" y="2517" width="110" height="46"></rect>
            <rect id="Rectangle-Copy-5" x="1766" y="2563" width="110" height="46"></rect>
            <rect id="Rectangle" x="3380" y="2471" width="110" height="46"></rect>
            <rect id="Rectangle-Copy-2" x="3380" y="2517" width="110" height="46"></rect>
            <rect id="Rectangle-Copy-4" x="3380" y="2563" width="110" height="46"></rect>
            <rect id="Rectangle-Copy" x="3270" y="2471" width="110" height="46"></rect>
            <rect id="Rectangle-Copy-3" x="3270" y="2517" width="110" height="46"></rect>
            <rect id="Rectangle-Copy-5" x="3270" y="2563" width="110" height="46"></rect>
            <rect id="Rectangle-Copy-2" x="2252" y="2517" width="110" height="46"></rect>
            <rect id="Rectangle-Copy-4" x="2252" y="2563" width="110" height="46"></rect>
            <rect id="Rectangle-Copy" x="2142" y="2471" width="110" height="46"></rect>
            <rect id="Rectangle-Copy-3" x="2142" y="2517" width="110" height="46"></rect>
            <rect id="Rectangle-Copy-5" x="2142" y="2563" width="110" height="46"></rect>
            <rect id="Rectangle" x="1876" y="2288" width="110" height="46"></rect>
            <rect id="Rectangle-Copy-2" x="1876" y="2334" width="110" height="46"></rect>
            <rect id="Rectangle-Copy-4" x="1876" y="2380" width="110" height="46"></rect>
            <rect id="Rectangle-Copy" x="1766" y="2288" width="110" height="46"></rect>
            <rect id="Rectangle-Copy-3" x="1766" y="2334" width="110" height="46"></rect>
            <rect id="Rectangle-Copy-5" x="1766" y="2380" width="110" height="46"></rect>
            <rect id="Rectangle-Copy-3" x="2142" y="2334" width="110" height="46"></rect>
            <rect id="Rectangle-Copy-6" x="2142" y="2288" width="110" height="46"></rect>
            <rect id="Rectangle-Copy-5" x="2142" y="2380" width="110" height="46"></rect>
            <rect id="Rectangle" x="1876" y="1744" width="110" height="46"></rect>
            <rect id="Rectangle-Copy-2" x="1876" y="1790" width="110" height="46"></rect>
            <rect id="Rectangle-Copy-4" x="1876" y="1836" width="110" height="46"></rect>
            <rect id="Rectangle-Copy" x="1766" y="1744" width="110" height="46"></rect>
            <rect id="Rectangle-Copy-3" x="1766" y="1790" width="110" height="46"></rect>
            <rect id="Rectangle-Copy-5" x="1766" y="1836" width="110" height="46"></rect>
            <rect id="Rectangle" x="1500" y="1744" width="110" height="46"></rect>
            <rect id="Rectangle-Copy-2" x="1500" y="1790" width="110" height="46"></rect>
            <rect id="Rectangle-Copy-4" x="1500" y="1836" width="110" height="46"></rect>
            <rect id="Rectangle-Copy" x="1390" y="1744" width="110" height="46"></rect>
            <rect id="Rectangle-Copy-3" x="1390" y="1790" width="110" height="46"></rect>
            <rect id="Rectangle-Copy-5" x="1390" y="1836" width="110" height="46"></rect>
            <rect id="Rectangle" x="1124" y="1744" width="110" height="46"></rect>
            <rect id="Rectangle-Copy-2" x="1124" y="1790" width="110" height="46"></rect>
            <rect id="Rectangle-Copy-4" x="1124" y="1836" width="110" height="46"></rect>
            <rect id="Rectangle-Copy" x="1014" y="1744" width="110" height="46"></rect>
            <rect id="Rectangle-Copy-3" x="1014" y="1790" width="110" height="46"></rect>
            <rect id="Rectangle-Copy-5" x="1014" y="1836" width="110" height="46"></rect>
            <rect id="Rectangle" x="748" y="1744" width="110" height="46"></rect>
            <rect id="Rectangle-Copy-2" x="748" y="1790" width="110" height="46"></rect>
            <rect id="Rectangle-Copy-4" x="748" y="1836" width="110" height="46"></rect>
            <rect id="Rectangle-Copy" x="638" y="1744" width="110" height="46"></rect>
            <rect id="Rectangle-Copy-3" x="638" y="1790" width="110" height="46"></rect>
            <rect id="Rectangle-Copy-5" x="638" y="1836" width="110" height="46"></rect>
            <rect id="Rectangle" x="2252" y="1744" width="110" height="46"></rect>
            <rect id="Rectangle-Copy-2" x="2252" y="1790" width="110" height="46"></rect>
            <rect id="Rectangle-Copy-4" x="2252" y="1836" width="110" height="46"></rect>
            <rect id="Rectangle-Copy" x="2142" y="1744" width="110" height="46"></rect>
            <rect id="Rectangle-Copy-3" x="2142" y="1790" width="110" height="46"></rect>
            <rect id="Rectangle-Copy-5" x="2142" y="1836" width="110" height="46"></rect>
            <rect id="Rectangle" x="2628" y="1744" width="110" height="46"></rect>
            <rect id="Rectangle-Copy-2" x="2628" y="1790" width="110" height="46"></rect>
            <rect id="Rectangle-Copy-4" x="2628" y="1836" width="110" height="46"></rect>
            <rect id="Rectangle-Copy" x="2518" y="1744" width="110" height="46"></rect>
            <rect id="Rectangle-Copy-3" x="2518" y="1790" width="110" height="46"></rect>
            <rect id="Rectangle-Copy-5" x="2518" y="1836" width="110" height="46"></rect>
            <rect id="Rectangle" x="3004" y="1744" width="110" height="46"></rect>
            <rect id="Rectangle-Copy-2" x="3004" y="1790" width="110" height="46"></rect>
            <rect id="Rectangle-Copy-4" x="3004" y="1836" width="110" height="46"></rect>
            <rect id="Rectangle-Copy" x="2894" y="1744" width="110" height="46"></rect>
            <rect id="Rectangle-Copy-3" x="2894" y="1790" width="110" height="46"></rect>
            <rect id="Rectangle-Copy-5" x="2894" y="1836" width="110" height="46"></rect>
            <rect id="Rectangle" x="3004" y="1200" width="110" height="46"></rect>
            <rect id="Rectangle-Copy-2" x="3004" y="1246" width="110" height="46"></rect>
            <rect id="Rectangle-Copy-4" x="3004" y="1292" width="110" height="46"></rect>
            <rect id="Rectangle-Copy" x="2894" y="1200" width="110" height="46"></rect>
            <rect id="Rectangle-Copy-3" x="2894" y="1246" width="110" height="46"></rect>
            <rect id="Rectangle-Copy-5" x="2894" y="1292" width="110" height="46"></rect>
            <rect id="Rectangle" x="3756" y="1200" width="110" height="46"></rect>
            <rect id="Rectangle-Copy-2" x="3756" y="1246" width="110" height="46"></rect>
            <rect id="Rectangle-Copy-4" x="3756" y="1292" width="110" height="46"></rect>
            <rect id="Rectangle-Copy" x="3646" y="1200" width="110" height="46"></rect>
            <rect id="Rectangle-Copy-3" x="3646" y="1246" width="110" height="46"></rect>
            <rect id="Rectangle-Copy-5" x="3646" y="1292" width="110" height="46"></rect>
            <rect id="Rectangle-Copy" x="4022" y="1200" width="110" height="46"></rect>
            <rect id="Rectangle-Copy-3" x="4022" y="1246" width="110" height="46"></rect>
            <rect id="Rectangle-Copy-5" x="4022" y="1292" width="110" height="46"></rect>
            <rect id="Rectangle-Copy" x="4022" y="305" width="110" height="46"></rect>
            <rect id="Rectangle-Copy-3" x="4022" y="351" width="110" height="46"></rect>
            <rect id="Rectangle-Copy-5" x="4022" y="397" width="110" height="46"></rect>
            <rect id="Rectangle-Copy" x="4362" y="1200" width="110" height="46"></rect>
            <rect id="Rectangle-Copy-3" x="4362" y="1246" width="110" height="46"></rect>
            <rect id="Rectangle-Copy-5" x="4362" y="1292" width="110" height="46"></rect>
            <rect id="Rectangle-Copy" x="4362" y="1032" width="110" height="46"></rect>
            <rect id="Rectangle-Copy-3" x="4362" y="1078" width="110" height="46"></rect>
            <rect id="Rectangle-Copy-5" x="4362" y="1124" width="110" height="46"></rect>
            <rect id="Rectangle-Copy" x="4662" y="1200" width="110" height="46"></rect>
            <rect id="Rectangle-Copy-3" x="4662" y="1246" width="110" height="46"></rect>
            <rect id="Rectangle-Copy-5" x="4662" y="1292" width="110" height="46"></rect>
            <rect id="Rectangle-Copy" x="4662" y="1394" width="110" height="46"></rect>
            <rect id="Rectangle-Copy-3" x="4662" y="1440" width="110" height="46"></rect>
            <rect id="Rectangle-Copy-5" x="4662" y="1486" width="110" height="46"></rect>
            <rect id="Rectangle-Copy" x="4022" y="1744" width="110" height="46"></rect>
            <rect id="Rectangle-Copy-3" x="4022" y="1790" width="110" height="46"></rect>
            <rect id="Rectangle-Copy-5" x="4022" y="1836" width="110" height="46"></rect>
            <rect id="Rectangle-Copy" x="4022" y="1561" width="110" height="46"></rect>
            <rect id="Rectangle-Copy-3" x="4022" y="1607" width="110" height="46"></rect>
            <rect id="Rectangle-Copy-5" x="4022" y="1653" width="110" height="46"></rect>
            <rect id="Rectangle" x="3756" y="834" width="110" height="46"></rect>
            <rect id="Rectangle-Copy-2" x="3756" y="880" width="110" height="46"></rect>
            <rect id="Rectangle-Copy-4" x="3756" y="926" width="110" height="46"></rect>
            <rect id="Rectangle-Copy" x="3646" y="834" width="110" height="46"></rect>
            <rect id="Rectangle-Copy-3" x="3646" y="880" width="110" height="46"></rect>
            <rect id="Rectangle-Copy-5" x="3646" y="926" width="110" height="46"></rect>
            <rect id="Rectangle-Copy" x="4662" y="834" width="110" height="46"></rect>
            <rect id="Rectangle-Copy-3" x="4662" y="880" width="110" height="46"></rect>
            <rect id="Rectangle-Copy-5" x="4662" y="926" width="110" height="46"></rect>
            <rect id="Rectangle-Copy-5" x="4661" y="743" width="110" height="46"></rect>
            <rect id="Rectangle-Copy-5" x="3756" y="2923" width="110" height="46"></rect>
            <rect id="Rectangle-Copy-5" x="4661" y="1124" width="110" height="46"></rect>
            <rect id="Rectangle" x="3380" y="1744" width="110" height="46"></rect>
            <rect id="Rectangle-Copy-2" x="3380" y="1790" width="110" height="46"></rect>
            <rect id="Rectangle-Copy-4" x="3380" y="1836" width="110" height="46"></rect>
            <rect id="Rectangle-Copy" x="3270" y="1744" width="110" height="46"></rect>
            <rect id="Rectangle-Copy-3" x="3270" y="1790" width="110" height="46"></rect>
            <rect id="Rectangle-Copy-5" x="3270" y="1836" width="110" height="46"></rect>
            <rect id="Rectangle" x="3756" y="1744" width="110" height="46"></rect>
            <rect id="Rectangle-Copy-2" x="3756" y="1790" width="110" height="46"></rect>
            <rect id="Rectangle-Copy-4" x="3756" y="1836" width="110" height="46"></rect>
            <rect id="Rectangle-Copy" x="3646" y="1744" width="110" height="46"></rect>
            <rect id="Rectangle-Copy-3" x="3646" y="1790" width="110" height="46"></rect>
            <rect id="Rectangle-Copy-5" x="3646" y="1836" width="110" height="46"></rect>
            <rect id="Rectangle" x="1876" y="1561" width="110" height="46"></rect>
            <rect id="Rectangle-Copy-2" x="1876" y="1607" width="110" height="46"></rect>
            <rect id="Rectangle-Copy-4" x="1876" y="1653" width="110" height="46"></rect>
            <rect id="Rectangle-Copy" x="1766" y="1561" width="110" height="46"></rect>
            <rect id="Rectangle-Copy-3" x="1766" y="1607" width="110" height="46"></rect>
            <rect id="Rectangle-Copy-5" x="1766" y="1653" width="110" height="46"></rect>
            <rect id="Rectangle" x="1500" y="1561" width="110" height="46"></rect>
            <rect id="Rectangle-Copy-2" x="1500" y="1607" width="110" height="46"></rect>
            <rect id="Rectangle-Copy-4" x="1500" y="1653" width="110" height="46"></rect>
            <rect id="Rectangle-Copy" x="1390" y="1561" width="110" height="46"></rect>
            <rect id="Rectangle-Copy-3" x="1390" y="1607" width="110" height="46"></rect>
            <rect id="Rectangle-Copy-5" x="1390" y="1653" width="110" height="46"></rect>
            <rect id="Rectangle" x="1124" y="1561" width="110" height="46"></rect>
            <rect id="Rectangle-Copy-2" x="1124" y="1607" width="110" height="46"></rect>
            <rect id="Rectangle-Copy-4" x="1124" y="1653" width="110" height="46"></rect>
            <rect id="Rectangle-Copy" x="1014" y="1561" width="110" height="46"></rect>
            <rect id="Rectangle-Copy-3" x="1014" y="1607" width="110" height="46"></rect>
            <rect id="Rectangle-Copy-5" x="1014" y="1653" width="110" height="46"></rect>
            <rect id="Rectangle" x="748" y="1561" width="110" height="46"></rect>
            <rect id="Rectangle-Copy-2" x="748" y="1607" width="110" height="46"></rect>
            <rect id="Rectangle-Copy-4" x="748" y="1653" width="110" height="46"></rect>
            <rect id="Rectangle-Copy" x="638" y="1561" width="110" height="46"></rect>
            <rect id="Rectangle-Copy-3" x="638" y="1607" width="110" height="46"></rect>
            <rect id="Rectangle-Copy-5" x="638" y="1653" width="110" height="46"></rect>
            <rect id="Rectangle" x="748" y="1200" width="110" height="46"></rect>
            <rect id="Rectangle-Copy-2" x="748" y="1246" width="110" height="46"></rect>
            <rect id="Rectangle-Copy-4" x="748" y="1292" width="110" height="46"></rect>
            <rect id="Rectangle-Copy" x="638" y="1200" width="110" height="46"></rect>
            <rect id="Rectangle-Copy-3" x="638" y="1246" width="110" height="46"></rect>
            <rect id="Rectangle-Copy-5" x="638" y="1292" width="110" height="46"></rect>
            <rect id="Rectangle-Copy" x="1014" y="1200" width="110" height="46"></rect>
            <rect id="Rectangle-Copy-3" x="1014" y="1246" width="110" height="46"></rect>
            <rect id="Rectangle-Copy-5" x="1014" y="1292" width="110" height="46"></rect>
            <rect id="Rectangle-Copy" x="372" y="1200" width="110" height="46"></rect>
            <rect id="Rectangle-Copy-3" x="372" y="1246" width="110" height="46"></rect>
            <rect id="Rectangle-Copy-5" x="372" y="1292" width="110" height="46"></rect>
            <rect id="Rectangle" x="2252" y="1561" width="110" height="46"></rect>
            <rect id="Rectangle-Copy-2" x="2252" y="1607" width="110" height="46"></rect>
            <rect id="Rectangle-Copy-4" x="2252" y="1653" width="110" height="46"></rect>
            <rect id="Rectangle-Copy" x="2142" y="1561" width="110" height="46"></rect>
            <rect id="Rectangle-Copy-3" x="2142" y="1607" width="110" height="46"></rect>
            <rect id="Rectangle-Copy-5" x="2142" y="1653" width="110" height="46"></rect>
            <rect id="Rectangle" x="2628" y="1561" width="110" height="46"></rect>
            <rect id="Rectangle-Copy-2" x="2628" y="1607" width="110" height="46"></rect>
            <rect id="Rectangle-Copy-4" x="2628" y="1653" width="110" height="46"></rect>
            <rect id="Rectangle-Copy" x="2518" y="1561" width="110" height="46"></rect>
            <rect id="Rectangle-Copy-3" x="2518" y="1607" width="110" height="46"></rect>
            <rect id="Rectangle-Copy-5" x="2518" y="1653" width="110" height="46"></rect>
            <rect id="Rectangle" x="2628" y="1200" width="110" height="46"></rect>
            <rect id="Rectangle-Copy-2" x="2628" y="1246" width="110" height="46"></rect>
            <rect id="Rectangle-Copy-4" x="2628" y="1292" width="110" height="46"></rect>
            <rect id="Rectangle" x="3004" y="1561" width="110" height="46"></rect>
            <rect id="Rectangle-Copy-2" x="3004" y="1607" width="110" height="46"></rect>
            <rect id="Rectangle-Copy-4" x="3004" y="1653" width="110" height="46"></rect>
            <rect id="Rectangle-Copy" x="2894" y="1561" width="110" height="46"></rect>
            <rect id="Rectangle-Copy-3" x="2894" y="1607" width="110" height="46"></rect>
            <rect id="Rectangle-Copy-5" x="2894" y="1653" width="110" height="46"></rect>
            <rect id="Rectangle" x="3004" y="1017" width="110" height="46"></rect>
            <rect id="Rectangle-Copy-2" x="3004" y="1063" width="110" height="46"></rect>
            <rect id="Rectangle-Copy-4" x="3004" y="1109" width="110" height="46"></rect>
            <rect id="Rectangle-Copy" x="2894" y="1017" width="110" height="46"></rect>
            <rect id="Rectangle-Copy-3" x="2894" y="1063" width="110" height="46"></rect>
            <rect id="Rectangle-Copy-5" x="2894" y="1109" width="110" height="46"></rect>
            <rect id="Rectangle" x="3756" y="1017" width="110" height="46"></rect>
            <rect id="Rectangle-Copy-2" x="3756" y="1063" width="110" height="46"></rect>
            <rect id="Rectangle-Copy-4" x="3756" y="1109" width="110" height="46"></rect>
            <rect id="Rectangle-Copy" x="3646" y="1017" width="110" height="46"></rect>
            <rect id="Rectangle-Copy-3" x="3646" y="1063" width="110" height="46"></rect>
            <rect id="Rectangle-Copy-5" x="3646" y="1109" width="110" height="46"></rect>
            <rect id="Rectangle" x="3756" y="651" width="110" height="46"></rect>
            <rect id="Rectangle-Copy-2" x="3756" y="697" width="110" height="46"></rect>
            <rect id="Rectangle-Copy-4" x="3756" y="743" width="110" height="46"></rect>
            <rect id="Rectangle-Copy" x="3646" y="651" width="110" height="46"></rect>
            <rect id="Rectangle-Copy-3" x="3646" y="697" width="110" height="46"></rect>
            <rect id="Rectangle-Copy-5" x="3646" y="743" width="110" height="46"></rect>
            <rect id="Rectangle-Copy" x="4022" y="651" width="110" height="46"></rect>
            <rect id="Rectangle-Copy-3" x="4022" y="697" width="110" height="46"></rect>
            <rect id="Rectangle-Copy" x="4022" y="173" width="110" height="46"></rect>
            <rect id="Rectangle-Copy-3" x="4022" y="219" width="110" height="46"></rect>
            <rect id="Rectangle" x="3004" y="657" width="110" height="46"></rect>
            <rect id="Rectangle-Copy-2" x="3004" y="703" width="110" height="46"></rect>
            <rect id="Rectangle-Copy-4" x="3004" y="749" width="110" height="46"></rect>
            <rect id="Rectangle" x="3380" y="1561" width="110" height="46"></rect>
            <rect id="Rectangle-Copy-2" x="3380" y="1607" width="110" height="46"></rect>
            <rect id="Rectangle-Copy-4" x="3380" y="1653" width="110" height="46"></rect>
            <rect id="Rectangle-Copy" x="3270" y="1561" width="110" height="46"></rect>
            <rect id="Rectangle-Copy-3" x="3270" y="1607" width="110" height="46"></rect>
            <rect id="Rectangle-Copy-5" x="3270" y="1653" width="110" height="46"></rect>
            <rect id="Rectangle" x="3756" y="1561" width="110" height="46"></rect>
            <rect id="Rectangle-Copy-2" x="3756" y="1607" width="110" height="46"></rect>
            <rect id="Rectangle-Copy-4" x="3756" y="1653" width="110" height="46"></rect>
            <rect id="Rectangle-Copy" x="3646" y="1561" width="110" height="46"></rect>
            <rect id="Rectangle-Copy-3" x="3646" y="1607" width="110" height="46"></rect>
            <rect id="Rectangle-Copy-5" x="3646" y="1653" width="110" height="46"></rect>
            <rect id="Rectangle" x="3380" y="2288" width="110" height="46"></rect>
            <rect id="Rectangle-Copy-2" x="3380" y="2334" width="110" height="46"></rect>
            <rect id="Rectangle-Copy-4" x="3380" y="2380" width="110" height="46"></rect>
            <rect id="Rectangle-Copy" x="3270" y="2288" width="110" height="46"></rect>
            <rect id="Rectangle-Copy-3" x="3270" y="2334" width="110" height="46"></rect>
            <rect id="Rectangle-Copy-5" x="3270" y="2380" width="110" height="46"></rect>
            <rect id="Rectangle" x="3380" y="2105" width="110" height="46"></rect>
            <rect id="Rectangle-Copy-2" x="3380" y="2151" width="110" height="46"></rect>
            <rect id="Rectangle-Copy-4" x="3380" y="2197" width="110" height="46"></rect>
            <rect id="Rectangle-Copy" x="3270" y="2105" width="110" height="46"></rect>
            <rect id="Rectangle-Copy-3" x="3270" y="2151" width="110" height="46"></rect>
            <rect id="Rectangle-Copy-5" x="3270" y="2197" width="110" height="46"></rect>
            <rect id="Rectangle" x="3756" y="2105" width="110" height="46"></rect>
            <rect id="Rectangle-Copy-2" x="3756" y="2151" width="110" height="46"></rect>
            <rect id="Rectangle-Copy-4" x="3756" y="2197" width="110" height="46"></rect>
            <rect id="Rectangle-Copy" x="3646" y="2105" width="110" height="46"></rect>
            <rect id="Rectangle-Copy-3" x="3646" y="2151" width="110" height="46"></rect>
            <rect id="Rectangle-Copy-5" x="3646" y="2197" width="110" height="46"></rect>
            <rect id="Rectangle" x="3004" y="2105" width="110" height="46"></rect>
            <rect id="Rectangle-Copy-2" x="3004" y="2151" width="110" height="46"></rect>
            <rect id="Rectangle-Copy-4" x="3004" y="2197" width="110" height="46"></rect>
            <rect id="Rectangle-Copy" x="2894" y="2105" width="110" height="46"></rect>
            <rect id="Rectangle-Copy-3" x="2894" y="2151" width="110" height="46"></rect>
            <rect id="Rectangle-Copy-5" x="2894" y="2197" width="110" height="46"></rect>
            <rect id="Rectangle-Copy-2" x="1876" y="2105" width="110" height="46"></rect>
            <rect id="Rectangle-Copy-4" x="1876" y="2151" width="110" height="46"></rect>
            <rect id="Rectangle-Copy-7" x="1876" y="2197" width="110" height="46"></rect>
            <rect id="Rectangle-Copy-3" x="1766" y="2105" width="110" height="46"></rect>
            <rect id="Rectangle-Copy-5" x="1766" y="2151" width="110" height="46"></rect>
            <rect id="Rectangle-Copy-2" x="3004" y="2694" width="110" height="46"></rect>
            <rect id="Rectangle-Copy-4" x="3004" y="2740" width="110" height="46"></rect>
            <rect id="Rectangle-Copy-3" x="2894" y="2694" width="110" height="46"></rect>
            <rect id="Rectangle-Copy-5" x="2894" y="2740" width="110" height="46"></rect>
            <rect id="Rectangle-Copy-2" x="3004" y="2288" width="110" height="46"></rect>
            <rect id="Rectangle-Copy-3" x="2894" y="2288" width="110" height="46"></rect>
            <rect id="Rectangle-Copy-2" x="3380" y="2694" width="110" height="46"></rect>
            <rect id="Rectangle-Copy-4" x="3380" y="2740" width="110" height="46"></rect>
            <rect id="Rectangle-Copy-3" x="3270" y="2694" width="110" height="46"></rect>
            <rect id="Rectangle-Copy-5" x="3270" y="2740" width="110" height="46"></rect>
            <rect id="Rectangle" x="1500" y="2831" width="110" height="46"></rect>
            <rect id="Rectangle-Copy-2" x="1500" y="2877" width="110" height="46"></rect>
            <rect id="Rectangle-Copy-4" x="1500" y="2923" width="110" height="46"></rect>
            <rect id="Rectangle-Copy" x="1390" y="2831" width="110" height="46"></rect>
            <rect id="Rectangle-Copy-3" x="1390" y="2877" width="110" height="46"></rect>
            <rect id="Rectangle-Copy-5" x="1390" y="2923" width="110" height="46"></rect>
            <rect id="Rectangle" x="1500" y="3014" width="110" height="46"></rect>
            <rect id="Rectangle-Copy-2" x="1500" y="3060" width="110" height="46"></rect>
            <rect id="Rectangle-Copy-4" x="1500" y="3106" width="110" height="46"></rect>
            <rect id="Rectangle-Copy" x="1390" y="3014" width="110" height="46"></rect>
            <rect id="Rectangle-Copy-3" x="1390" y="3060" width="110" height="46"></rect>
            <rect id="Rectangle-Copy-5" x="1390" y="3106" width="110" height="46"></rect>
            <rect id="Rectangle" x="1124" y="3014" width="110" height="46"></rect>
            <rect id="Rectangle-Copy-2" x="1124" y="3060" width="110" height="46"></rect>
            <rect id="Rectangle-Copy-4" x="1124" y="3106" width="110" height="46"></rect>
            <rect id="Rectangle-Copy" x="1014" y="3014" width="110" height="46"></rect>
            <rect id="Rectangle-Copy-3" x="1014" y="3060" width="110" height="46"></rect>
            <rect id="Rectangle-Copy-5" x="1014" y="3106" width="110" height="46"></rect>
            <rect id="Rectangle" x="748" y="3014" width="110" height="46"></rect>
            <rect id="Rectangle-Copy-2" x="748" y="3060" width="110" height="46"></rect>
            <rect id="Rectangle-Copy-4" x="748" y="3106" width="110" height="46"></rect>
            <rect id="Rectangle-Copy" x="638" y="3014" width="110" height="46"></rect>
            <rect id="Rectangle-Copy-3" x="638" y="3060" width="110" height="46"></rect>
            <rect id="Rectangle-Copy-5" x="638" y="3106" width="110" height="46"></rect>
            <rect id="Rectangle-Copy-3" x="0" y="3027" width="110" height="46"></rect>
            <rect id="Rectangle-Copy-5" x="0" y="3073" width="110" height="46"></rect>
            <rect id="Rectangle-Copy-3" x="347" y="3333" width="110" height="46"></rect>
            <rect id="Rectangle-Copy-5" x="487" y="3333" width="110" height="46"></rect>
            <rect id="Rectangle-Copy-3" x="0" y="2811" width="110" height="46"></rect>
            <rect id="Rectangle-Copy-5" x="0" y="2857" width="110" height="46"></rect>
            <rect id="Rectangle-Copy-3" x="1500" y="2282" width="110" height="46"></rect>
            <rect id="Rectangle-Copy-5" x="1500" y="2328" width="110" height="46"></rect>
            <rect id="Rectangle-Copy-3" x="0" y="2699" width="110" height="46"></rect>
            <rect id="Rectangle-Copy-5" x="0" y="2745" width="110" height="46"></rect>
            <rect id="Rectangle" x="748" y="2831" width="110" height="46"></rect>
            <rect id="Rectangle-Copy-2" x="748" y="2877" width="110" height="46"></rect>
            <rect id="Rectangle-Copy-4" x="748" y="2923" width="110" height="46"></rect>
            <rect id="Rectangle-Copy" x="638" y="2831" width="110" height="46"></rect>
            <rect id="Rectangle-Copy-3" x="638" y="2877" width="110" height="46"></rect>
            <rect id="Rectangle-Copy-5" x="638" y="2923" width="110" height="46"></rect>
            <rect id="Rectangle" x="748" y="2648" width="110" height="46"></rect>
            <rect id="Rectangle-Copy-2" x="748" y="2694" width="110" height="46"></rect>
            <rect id="Rectangle-Copy-4" x="748" y="2740" width="110" height="46"></rect>
            <rect id="Rectangle-Copy" x="638" y="2648" width="110" height="46"></rect>
            <rect id="Rectangle-Copy-3" x="638" y="2694" width="110" height="46"></rect>
            <rect id="Rectangle-Copy-5" x="638" y="2740" width="110" height="46"></rect>
            <rect id="Rectangle" x="748" y="2465" width="110" height="46"></rect>
            <rect id="Rectangle-Copy-2" x="748" y="2511" width="110" height="46"></rect>
            <rect id="Rectangle-Copy-4" x="748" y="2557" width="110" height="46"></rect>
            <rect id="Rectangle-Copy" x="638" y="2465" width="110" height="46"></rect>
            <rect id="Rectangle-Copy-3" x="638" y="2511" width="110" height="46"></rect>
            <rect id="Rectangle-Copy-5" x="638" y="2557" width="110" height="46"></rect>
            <rect id="Rectangle" x="372" y="2831" width="110" height="46"></rect>
            <rect id="Rectangle-Copy-2" x="372" y="2877" width="110" height="46"></rect>
            <rect id="Rectangle-Copy" x="262" y="2831" width="110" height="46"></rect>
            <rect id="Rectangle-Copy-3" x="262" y="2877" width="110" height="46"></rect>
            <rect id="Rectangle-Copy-5" x="262" y="2923" width="110" height="46"></rect>
            <rect id="Rectangle" x="748" y="2282" width="110" height="46"></rect>
            <rect id="Rectangle-Copy-2" x="748" y="2328" width="110" height="46"></rect>
            <rect id="Rectangle-Copy-4" x="748" y="2374" width="110" height="46"></rect>
            <rect id="Rectangle-Copy" x="638" y="2282" width="110" height="46"></rect>
            <rect id="Rectangle-Copy-3" x="638" y="2328" width="110" height="46"></rect>
            <rect id="Rectangle-Copy-5" x="638" y="2374" width="110" height="46"></rect>
            <rect id="Rectangle" x="748" y="2099" width="110" height="46"></rect>
            <rect id="Rectangle-Copy-2" x="748" y="2145" width="110" height="46"></rect>
            <rect id="Rectangle-Copy-4" x="748" y="2191" width="110" height="46"></rect>
            <rect id="Rectangle-Copy" x="638" y="2099" width="110" height="46"></rect>
            <rect id="Rectangle-Copy-3" x="638" y="2145" width="110" height="46"></rect>
            <rect id="Rectangle-Copy-5" x="638" y="2191" width="110" height="46"></rect>
            <rect id="Rectangle" x="1876" y="3014" width="110" height="46"></rect>
            <rect id="Rectangle-Copy-2" x="1876" y="3060" width="110" height="46"></rect>
            <rect id="Rectangle-Copy-4" x="1876" y="3106" width="110" height="46"></rect>
            <rect id="Rectangle-Copy" x="1766" y="3014" width="110" height="46"></rect>
            <rect id="Rectangle-Copy-3" x="1766" y="3060" width="110" height="46"></rect>
            <rect id="Rectangle-Copy-5" x="1766" y="3106" width="110" height="46"></rect>
            <rect id="Rectangle" x="2252" y="3014" width="110" height="46"></rect>
            <rect id="Rectangle-Copy-2" x="2252" y="3060" width="110" height="46"></rect>
            <rect id="Rectangle-Copy-4" x="2252" y="3106" width="110" height="46"></rect>
            <rect id="Rectangle-Copy" x="2142" y="3014" width="110" height="46"></rect>
            <rect id="Rectangle-Copy-3" x="2142" y="3060" width="110" height="46"></rect>
            <rect id="Rectangle-Copy-5" x="2142" y="3106" width="110" height="46"></rect>
            <rect id="Rectangle" x="2628" y="3014" width="110" height="46"></rect>
            <rect id="Rectangle-Copy-2" x="2628" y="3060" width="110" height="46"></rect>
            <rect id="Rectangle-Copy-4" x="2628" y="3106" width="110" height="46"></rect>
            <rect id="Rectangle-Copy" x="2518" y="3014" width="110" height="46"></rect>
            <rect id="Rectangle-Copy-3" x="2518" y="3060" width="110" height="46"></rect>
            <rect id="Rectangle-Copy-5" x="2518" y="3106" width="110" height="46"></rect>
            <rect id="Rectangle" x="2628" y="2471" width="110" height="46"></rect>
            <rect id="Rectangle-Copy-2" x="2628" y="2517" width="110" height="46"></rect>
            <rect id="Rectangle-Copy-4" x="2628" y="2563" width="110" height="46"></rect>
            <rect id="Rectangle-Copy-3" x="2518" y="2517" width="110" height="46"></rect>
            <rect id="Rectangle-Copy-5" x="2518" y="2563" width="110" height="46"></rect>
            <rect id="Rectangle" x="3004" y="3014" width="110" height="46"></rect>
            <rect id="Rectangle-Copy-2" x="3004" y="3060" width="110" height="46"></rect>
            <rect id="Rectangle-Copy-4" x="3004" y="3106" width="110" height="46"></rect>
            <rect id="Rectangle-Copy" x="2894" y="3014" width="110" height="46"></rect>
            <rect id="Rectangle-Copy-3" x="2894" y="3060" width="110" height="46"></rect>
            <rect id="Rectangle-Copy-5" x="2894" y="3106" width="110" height="46"></rect>
            <rect id="Rectangle-3-Copy-9" x="888" y="3320" width="46" height="110"></rect>
            <rect id="Rectangle-3-Copy-10" x="842" y="3320" width="46" height="110"></rect>
            <rect id="Rectangle-3-Copy-9" x="888" y="1060" width="46" height="110"></rect>
            <rect id="Rectangle-3-Copy-10" x="842" y="1060" width="46" height="110"></rect>
            <rect id="Rectangle-3-Copy-9" x="213" y="2538" width="46" height="110"></rect>
            <rect id="Rectangle-3-Copy-10" x="167" y="2538" width="46" height="110"></rect>
            <rect id="Rectangle-3" x="1531" y="3320" width="46" height="110"></rect>
            <rect id="Rectangle-3-Copy" x="1485" y="3320" width="46" height="110"></rect>
            <rect id="Rectangle-3-Copy-2" x="1439" y="3320" width="46" height="110"></rect>
            <rect id="Rectangle-3" x="1899" y="3320" width="46" height="110"></rect>
            <rect id="Rectangle-3-Copy" x="1853" y="3320" width="46" height="110"></rect>
            <rect id="Rectangle-3-Copy-2" x="1807" y="3320" width="46" height="110"></rect>
            <rect id="Rectangle-3" x="2087" y="3320" width="46" height="110"></rect>
            <rect id="Rectangle-3-Copy" x="2041" y="3320" width="46" height="110"></rect>
            <rect id="Rectangle-3-Copy-2" x="1995" y="3320" width="46" height="110"></rect>
            <rect id="Rectangle-3" x="2087" y="1269" width="46" height="110"></rect>
            <rect id="Rectangle-3-Copy-15" x="2209" y="1269" width="46" height="110"></rect>
            <rect id="Rectangle-3-Copy" x="2041" y="1269" width="46" height="110"></rect>
            <rect id="Rectangle-3-Copy-16" x="2163" y="1269" width="46" height="110"></rect>
            <rect id="Rectangle-3-Copy-2" x="1995" y="1269" width="46" height="110"></rect>
            <rect id="Rectangle-3" x="3403" y="1269" width="46" height="110"></rect>
            <rect id="Rectangle-3-Copy" x="3357" y="1269" width="46" height="110"></rect>
            <rect id="Rectangle-3-Copy-2" x="3311" y="1269" width="46" height="110"></rect>
            <rect id="Rectangle-3" x="2275" y="3320" width="46" height="110"></rect>
            <rect id="Rectangle-3-Copy" x="2229" y="3320" width="46" height="110"></rect>
            <rect id="Rectangle-3-Copy-2" x="2183" y="3320" width="46" height="110"></rect>
            <rect id="Rectangle-3" x="2275" y="2072" width="46" height="110"></rect>
            <rect id="Rectangle-3-Copy" x="2229" y="2072" width="46" height="110"></rect>
            <rect id="Rectangle-3-Copy-2" x="2183" y="2072" width="46" height="110"></rect>
            <rect id="Rectangle-3" x="2463" y="3320" width="46" height="110"></rect>
            <rect id="Rectangle-3-Copy" x="2417" y="3320" width="46" height="110"></rect>
            <rect id="Rectangle-3-Copy-2" x="2371" y="3320" width="46" height="110"></rect>
            <rect id="Rectangle-3" x="2463" y="2072" width="46" height="110"></rect>
            <rect id="Rectangle-3-Copy" x="2417" y="2072" width="46" height="110"></rect>
            <rect id="Rectangle-3-Copy-2" x="2371" y="2072" width="46" height="110"></rect>
            <rect id="Rectangle-3" x="2651" y="3320" width="46" height="110"></rect>
            <rect id="Rectangle-3-Copy" x="2605" y="3320" width="46" height="110"></rect>
            <rect id="Rectangle-3-Copy-2" x="2559" y="3320" width="46" height="110"></rect>
            <rect id="Rectangle-3" x="2651" y="2072" width="46" height="110"></rect>
            <rect id="Rectangle-3-Copy" x="2605" y="2072" width="46" height="110"></rect>
            <rect id="Rectangle-3-Copy-2" x="2559" y="2072" width="46" height="110"></rect>
            <rect id="Rectangle-3-Copy-12" x="4565" y="1534" width="46" height="110"></rect>
            <rect id="Rectangle-3-Copy-13" x="4519" y="1534" width="46" height="110"></rect>
            <rect id="Rectangle-3-Copy-14" x="4473" y="1534" width="46" height="110"></rect>
            <rect id="Rectangle-3-Copy-13" x="4243" y="1269" width="46" height="110"></rect>
            <rect id="Rectangle-3-Copy-14" x="4197" y="1269" width="46" height="110"></rect>
            <rect id="Rectangle-3" x="2839" y="0" width="46" height="110"></rect>
            <rect id="Rectangle-3-Copy-11" x="2935" y="0" width="46" height="110"></rect>
            <rect id="Rectangle-3-Copy" x="2793" y="0" width="46" height="110"></rect>
            <rect id="Rectangle-3-Copy-2" x="2747" y="0" width="46" height="110"></rect>
            <rect id="Rectangle-3" x="3779" y="248" width="46" height="110"></rect>
            <rect id="Rectangle-3-Copy" x="3733" y="248" width="46" height="110"></rect>
            <rect id="Rectangle-3-Copy-2" x="3687" y="248" width="46" height="110"></rect>
            <rect id="Rectangle-3" transform="translate(3979.316518, 106.890111) rotate(15.000000) translate(-3979.316518, -106.890111) " x="3956.31652" y="51.8901106" width="46" height="110"></rect>
            <rect id="Rectangle-3-Copy" transform="translate(3934.883929, 94.984435) rotate(15.000000) translate(-3934.883929, -94.984435) " x="3911.88393" y="39.9844346" width="46" height="110"></rect>
            <rect id="Rectangle-3-Copy-2" transform="translate(3890.451341, 83.078758) rotate(15.000000) translate(-3890.451341, -83.078758) " x="3867.45134" y="28.0787585" width="46" height="110"></rect>
            <rect id="Rectangle-3-Copy" x="3761" y="9" width="46" height="110"></rect>
            <rect id="Rectangle-3-Copy" x="572" y="1060" width="46" height="110"></rect>
            <rect id="Rectangle-3" x="2839" y="3320" width="46" height="110"></rect>
            <rect id="Rectangle-3-Copy" x="2793" y="3320" width="46" height="110"></rect>
            <rect id="Rectangle-3-Copy-2" x="2747" y="3320" width="46" height="110"></rect>
            <rect id="Rectangle-3" x="3027" y="3320" width="46" height="110"></rect>
            <rect id="Rectangle-3-Copy" x="2981" y="3320" width="46" height="110"></rect>
            <rect id="Rectangle-3-Copy-2" x="2935" y="3320" width="46" height="110"></rect>
            <rect id="Rectangle-3-Copy-3" x="1129" y="3320" width="46" height="110"></rect>
            <rect id="Rectangle-3-Copy-4" x="1083" y="3320" width="46" height="110"></rect>
            <rect id="Rectangle-3-Copy-5" x="1037" y="3320" width="46" height="110"></rect>
            <rect id="Rectangle-3-Copy-3" x="1129" y="2072" width="46" height="110"></rect>
            <rect id="Rectangle-3-Copy-4" x="1083" y="2072" width="46" height="110"></rect>
            <rect id="Rectangle-3-Copy-5" x="1037" y="2072" width="46" height="110"></rect>
            <rect id="Rectangle-3-Copy-3" x="1340" y="2072" width="46" height="110"></rect>
            <rect id="Rectangle-3-Copy-4" x="1294" y="2072" width="46" height="110"></rect>
            <rect id="Rectangle-3-Copy-5" x="1248" y="2072" width="46" height="110"></rect>
            <rect id="Rectangle-3-Copy-3" x="1523" y="2072" width="46" height="110"></rect>
            <rect id="Rectangle-3-Copy-4" x="1477" y="2072" width="46" height="110"></rect>
            <rect id="Rectangle-3-Copy-5" x="1431" y="2072" width="46" height="110"></rect>
            <rect id="Rectangle-3-Copy-6" x="756" y="3320" width="46" height="110"></rect>
            <rect id="Rectangle-3-Copy-7" x="710" y="3320" width="46" height="110"></rect>
            <rect id="Rectangle-3-Copy-8" x="664" y="3320" width="46" height="110"></rect>
            <rect id="Rectangle-3-Copy-6" x="391" y="2538" width="46" height="110"></rect>
            <rect id="Rectangle-3-Copy-7" x="345" y="2538" width="46" height="110"></rect>
            <rect id="Rectangle-3-Copy-8" x="299" y="2538" width="46" height="110"></rect>
            <rect id="Rectangle" x="4022" y="2471" width="110" height="46"></rect>
            <rect id="Rectangle-Copy-2" x="4022" y="2517" width="110" height="46"></rect>
            <rect id="Rectangle-Copy-4" x="4022" y="2563" width="110" height="46"></rect>
            <rect id="Rectangle" x="4022" y="2288" width="110" height="46"></rect>
            <rect id="Rectangle-Copy-2" x="4022" y="2334" width="110" height="46"></rect>
            <rect id="Rectangle-Copy-4" x="4022" y="2380" width="110" height="46"></rect>
            <rect id="Rectangle-Copy-2" x="4022" y="2151" width="110" height="46"></rect>
            <rect id="Rectangle-Copy-4" x="4022" y="2197" width="110" height="46"></rect>
            <gggg/>
        </g>
    </g>
</svg>